<mxfile host="app.diagrams.net" modified="2022-09-20T11:27:45.269Z" agent="5.0 (Windows NT 10.0; Win64; x64) AppleWebKit/537.36 (KHTML, like Gecko) Chrome/105.0.0.0 Safari/537.36" etag="MSwbO6-KA5RY_BTiFKmd" version="20.0.4" type="github">
  <diagram id="7wI1wUISZu_NQ6IwNErt" name="Página-1">
    <mxGraphModel dx="1067" dy="434" grid="1" gridSize="10" guides="1" tooltips="1" connect="1" arrows="1" fold="1" page="1" pageScale="1" pageWidth="827" pageHeight="1169" math="0" shadow="0">
      <root>
        <mxCell id="0" />
        <mxCell id="1" parent="0" />
        <mxCell id="dGzZGJo2nrB3SoqBSR4s-70" value="Clientes" style="swimlane;fontStyle=1;align=center;verticalAlign=top;childLayout=stackLayout;horizontal=1;startSize=26;horizontalStack=0;resizeParent=1;resizeParentMax=0;resizeLast=0;collapsible=1;marginBottom=0;" parent="1" vertex="1">
          <mxGeometry x="120" y="80" width="180" height="176" as="geometry">
            <mxRectangle x="100" y="80" width="90" height="30" as="alternateBounds" />
          </mxGeometry>
        </mxCell>
        <mxCell id="dGzZGJo2nrB3SoqBSR4s-71" value="Nome: String&#xa;CPF: String&#xa;Cidade: String&#xa;UF: String" style="text;strokeColor=none;fillColor=none;align=left;verticalAlign=top;spacingLeft=4;spacingRight=4;overflow=hidden;rotatable=0;points=[[0,0.5],[1,0.5]];portConstraint=eastwest;" parent="dGzZGJo2nrB3SoqBSR4s-70" vertex="1">
          <mxGeometry y="26" width="180" height="70" as="geometry" />
        </mxCell>
        <mxCell id="dGzZGJo2nrB3SoqBSR4s-72" value="" style="line;strokeWidth=1;fillColor=none;align=left;verticalAlign=middle;spacingTop=-1;spacingLeft=3;spacingRight=3;rotatable=0;labelPosition=right;points=[];portConstraint=eastwest;" parent="dGzZGJo2nrB3SoqBSR4s-70" vertex="1">
          <mxGeometry y="96" width="180" height="10" as="geometry" />
        </mxCell>
        <mxCell id="dGzZGJo2nrB3SoqBSR4s-73" value="CriarNome()&#xa;lerNome()&#xa;AtualizarNome()&#xa;DeletarNome()&#xa;" style="text;strokeColor=none;fillColor=none;align=left;verticalAlign=top;spacingLeft=4;spacingRight=4;overflow=hidden;rotatable=0;points=[[0,0.5],[1,0.5]];portConstraint=eastwest;" parent="dGzZGJo2nrB3SoqBSR4s-70" vertex="1">
          <mxGeometry y="106" width="180" height="70" as="geometry" />
        </mxCell>
        <mxCell id="dGzZGJo2nrB3SoqBSR4s-74" value="Apólices" style="swimlane;fontStyle=1;align=center;verticalAlign=top;childLayout=stackLayout;horizontal=1;startSize=26;horizontalStack=0;resizeParent=1;resizeParentMax=0;resizeLast=0;collapsible=1;marginBottom=0;" parent="1" vertex="1">
          <mxGeometry x="120" y="290" width="180" height="304" as="geometry">
            <mxRectangle x="100" y="290" width="90" height="30" as="alternateBounds" />
          </mxGeometry>
        </mxCell>
        <mxCell id="dGzZGJo2nrB3SoqBSR4s-75" value="Número: Inteiro&#xa;VigenciaDataInicialFinal: Date&#xa;PlacaVeiculo: String&#xa;Valor: String&#xa;" style="text;strokeColor=none;fillColor=none;align=left;verticalAlign=top;spacingLeft=4;spacingRight=4;overflow=hidden;rotatable=0;points=[[0,0.5],[1,0.5]];portConstraint=eastwest;" parent="dGzZGJo2nrB3SoqBSR4s-74" vertex="1">
          <mxGeometry y="26" width="180" height="66" as="geometry" />
        </mxCell>
        <mxCell id="dGzZGJo2nrB3SoqBSR4s-91" value="Número: Inteiro&#xa;VigenciaDataInicialFinal: Date&#xa;PlacaVeiculo: String&#xa;Valor: String&#xa;" style="text;strokeColor=none;fillColor=none;align=left;verticalAlign=top;spacingLeft=4;spacingRight=4;overflow=hidden;rotatable=0;points=[[0,0.5],[1,0.5]];portConstraint=eastwest;" parent="dGzZGJo2nrB3SoqBSR4s-74" vertex="1">
          <mxGeometry y="92" width="180" height="66" as="geometry" />
        </mxCell>
        <mxCell id="dGzZGJo2nrB3SoqBSR4s-86" value="Número: Inteiro&#xa;VigenciaDataInicialFinal: Date&#xa;PlacaVeiculo: String&#xa;Valor: String&#xa;" style="text;strokeColor=none;fillColor=none;align=left;verticalAlign=top;spacingLeft=4;spacingRight=4;overflow=hidden;rotatable=0;points=[[0,0.5],[1,0.5]];portConstraint=eastwest;" parent="dGzZGJo2nrB3SoqBSR4s-74" vertex="1">
          <mxGeometry y="158" width="180" height="66" as="geometry" />
        </mxCell>
        <mxCell id="dGzZGJo2nrB3SoqBSR4s-76" value="" style="line;strokeWidth=1;fillColor=none;align=left;verticalAlign=middle;spacingTop=-1;spacingLeft=3;spacingRight=3;rotatable=0;labelPosition=right;points=[];portConstraint=eastwest;" parent="dGzZGJo2nrB3SoqBSR4s-74" vertex="1">
          <mxGeometry y="224" width="180" height="10" as="geometry" />
        </mxCell>
        <mxCell id="dGzZGJo2nrB3SoqBSR4s-77" value="CriarApólice()&#xa;lerApólice()&#xa;AtualizarApólice()&#xa;DeletarApólice()&#xa;" style="text;strokeColor=none;fillColor=none;align=left;verticalAlign=top;spacingLeft=4;spacingRight=4;overflow=hidden;rotatable=0;points=[[0,0.5],[1,0.5]];portConstraint=eastwest;" parent="dGzZGJo2nrB3SoqBSR4s-74" vertex="1">
          <mxGeometry y="234" width="180" height="70" as="geometry" />
        </mxCell>
        <mxCell id="dGzZGJo2nrB3SoqBSR4s-79" value="Consultar" style="swimlane;fontStyle=1;align=center;verticalAlign=top;childLayout=stackLayout;horizontal=1;startSize=26;horizontalStack=0;resizeParent=1;resizeParentMax=0;resizeLast=0;collapsible=1;marginBottom=0;" parent="1" vertex="1">
          <mxGeometry x="414" y="240" width="250" height="114" as="geometry">
            <mxRectangle x="510" y="90" width="100" height="30" as="alternateBounds" />
          </mxGeometry>
        </mxCell>
        <mxCell id="dGzZGJo2nrB3SoqBSR4s-87" value="MostrarCamposApólice: String&#xa;InformarApóliceVenceuOuNao: inteiro&#xa;InformarQuantosDiasVencerVenceu: Inteiro&#xa;" style="text;strokeColor=none;fillColor=none;align=left;verticalAlign=top;spacingLeft=4;spacingRight=4;overflow=hidden;rotatable=0;points=[[0,0.5],[1,0.5]];portConstraint=eastwest;" parent="dGzZGJo2nrB3SoqBSR4s-79" vertex="1">
          <mxGeometry y="26" width="250" height="54" as="geometry" />
        </mxCell>
        <mxCell id="dGzZGJo2nrB3SoqBSR4s-81" value="" style="line;strokeWidth=1;fillColor=none;align=left;verticalAlign=middle;spacingTop=-1;spacingLeft=3;spacingRight=3;rotatable=0;labelPosition=right;points=[];portConstraint=eastwest;" parent="dGzZGJo2nrB3SoqBSR4s-79" vertex="1">
          <mxGeometry y="80" width="250" height="8" as="geometry" />
        </mxCell>
        <mxCell id="dGzZGJo2nrB3SoqBSR4s-82" value="Consultar: String" style="text;strokeColor=none;fillColor=none;align=left;verticalAlign=top;spacingLeft=4;spacingRight=4;overflow=hidden;rotatable=0;points=[[0,0.5],[1,0.5]];portConstraint=eastwest;" parent="dGzZGJo2nrB3SoqBSR4s-79" vertex="1">
          <mxGeometry y="88" width="250" height="26" as="geometry" />
        </mxCell>
        <mxCell id="dGzZGJo2nrB3SoqBSR4s-83" value="" style="endArrow=none;html=1;edgeStyle=orthogonalEdgeStyle;rounded=0;exitX=1;exitY=0.5;exitDx=0;exitDy=0;entryX=0;entryY=0.685;entryDx=0;entryDy=0;entryPerimeter=0;" parent="1" source="dGzZGJo2nrB3SoqBSR4s-75" edge="1">
          <mxGeometry relative="1" as="geometry">
            <mxPoint x="400" y="340" as="sourcePoint" />
            <mxPoint x="414" y="326.99" as="targetPoint" />
          </mxGeometry>
        </mxCell>
        <mxCell id="dGzZGJo2nrB3SoqBSR4s-84" value="1" style="edgeLabel;resizable=0;html=1;align=left;verticalAlign=bottom;" parent="dGzZGJo2nrB3SoqBSR4s-83" connectable="0" vertex="1">
          <mxGeometry x="-1" relative="1" as="geometry" />
        </mxCell>
        <mxCell id="dGzZGJo2nrB3SoqBSR4s-85" value="1..*" style="edgeLabel;resizable=0;html=1;align=right;verticalAlign=bottom;" parent="dGzZGJo2nrB3SoqBSR4s-83" connectable="0" vertex="1">
          <mxGeometry x="1" relative="1" as="geometry">
            <mxPoint x="-8" as="offset" />
          </mxGeometry>
        </mxCell>
        <mxCell id="dGzZGJo2nrB3SoqBSR4s-88" value="" style="endArrow=none;html=1;edgeStyle=orthogonalEdgeStyle;rounded=0;exitX=0;exitY=0.5;exitDx=0;exitDy=0;entryX=-0.017;entryY=0.076;entryDx=0;entryDy=0;entryPerimeter=0;" parent="1" source="dGzZGJo2nrB3SoqBSR4s-71" target="dGzZGJo2nrB3SoqBSR4s-91" edge="1">
          <mxGeometry relative="1" as="geometry">
            <mxPoint x="80" y="141" as="sourcePoint" />
            <mxPoint x="100" y="388" as="targetPoint" />
            <Array as="points">
              <mxPoint x="80" y="141" />
              <mxPoint x="80" y="388" />
            </Array>
          </mxGeometry>
        </mxCell>
        <mxCell id="dGzZGJo2nrB3SoqBSR4s-89" value="*" style="edgeLabel;resizable=0;html=1;align=left;verticalAlign=bottom;" parent="dGzZGJo2nrB3SoqBSR4s-88" connectable="0" vertex="1">
          <mxGeometry x="-1" relative="1" as="geometry">
            <mxPoint x="-10" y="-1" as="offset" />
          </mxGeometry>
        </mxCell>
        <mxCell id="dGzZGJo2nrB3SoqBSR4s-90" value="1" style="edgeLabel;resizable=0;html=1;align=right;verticalAlign=bottom;" parent="dGzZGJo2nrB3SoqBSR4s-88" connectable="0" vertex="1">
          <mxGeometry x="1" relative="1" as="geometry" />
        </mxCell>
      </root>
    </mxGraphModel>
  </diagram>
</mxfile>
